<?xml version="1.0" encoding="iso-8859-1"?>
<!-- Generator: Adobe Illustrator 19.0.0, SVG Export Plug-In . SVG Version: 6.00 Build 0)  -->
<svg version="1.1" id="Layer_1" xmlns="http://www.w3.org/2000/svg" xmlns:xlink="http://www.w3.org/1999/xlink" x="0px" y="0px"
	 viewBox="0 0 512 512" style="enable-background:new 0 0 512 512;" xml:space="preserve">
<g>
	<g>
		<path fill="#65ca58" d="M495.304,0.238H16.696C7.473,0.238,0,7.711,0,16.934v333.913c0,9.222,7.473,16.693,16.696,16.693h194.892l-40.5,92.592
			c-5.871,13.437,7.266,27.398,21.011,22.38l28.68-10.44l10.44,28.69c5.024,13.81,24.842,15.168,31.005,0.929l32.734-75.487
			l32.733,75.489c5.999,13.843,25.848,13.246,31.005-0.929l10.44-28.69l28.68,10.44c13.724,5.016,26.887-8.931,21.011-22.38
			l-40.5-92.592h116.979c9.217,0,16.696-7.473,16.696-16.696V16.934C512,7.711,504.521,0.238,495.304,0.238z M294.957,367.54
			c-27.619,0-50.087-22.468-50.087-50.087c0-27.619,22.468-50.087,50.087-50.087c27.619,0,50.087,22.468,50.087,50.087
			C345.043,345.072,322.576,367.54,294.957,367.54z M150.261,167.193c-9.223,0-16.696-7.473-16.696-16.696
			c0-9.223,7.473-16.696,16.696-16.696h211.478c9.223,0,16.696,7.473,16.696,16.696c0,9.223-7.473,16.696-16.696,16.696H150.261z
			 M211.478,217.28c0,9.223-7.473,16.696-16.696,16.696h-44.522c-9.223,0-16.696-7.473-16.696-16.696
			c0-9.223,7.473-16.696,16.696-16.696h44.522C204.005,200.584,211.478,208.057,211.478,217.28z M445.217,250.671
			c0,9.223-7.473,16.696-16.696,16.696c-9.206,0-16.696,7.49-16.696,16.696c0,9.223-7.473,16.696-16.696,16.696h-18.379
			c-2.518-12.355-7.843-23.667-15.171-33.391h19.712c5.038-14.212,16.321-25.494,30.533-30.533V130.942
			c-14.212-5.038-25.494-16.321-30.533-30.533H130.707c-5.038,14.212-16.321,25.494-30.533,30.533v105.892
			c14.212,5.038,25.494,16.209,30.533,30.422h97.625c-7.328,9.725-12.653,21.148-15.171,33.503H116.87
			c-9.223,0-16.696-7.473-16.696-16.696c0-9.206-7.49-16.696-16.696-16.696c-9.223,0-16.696-7.473-16.696-16.696V117.106
			c0-9.223,7.473-16.696,16.696-16.696c9.206,0,16.696-7.49,16.696-16.696c0-9.223,7.473-16.696,16.696-16.696H395.13
			c9.223,0,16.696,7.473,16.696,16.696c0,9.206,7.49,16.696,16.696,16.696c9.223,0,16.696,7.473,16.696,16.696V250.671z"/>
	</g>
</g>
<g>
</g>
<g>
</g>
<g>
</g>
<g>
</g>
<g>
</g>
<g>
</g>
<g>
</g>
<g>
</g>
<g>
</g>
<g>
</g>
<g>
</g>
<g>
</g>
<g>
</g>
<g>
</g>
<g>
</g>
</svg>
