<?xml version="1.0" encoding="iso-8859-1"?>
<!-- Generator: Adobe Illustrator 18.0.0, SVG Export Plug-In . SVG Version: 6.00 Build 0)  -->
<!DOCTYPE svg PUBLIC "-//W3C//DTD SVG 1.1//EN" "http://www.w3.org/Graphics/SVG/1.1/DTD/svg11.dtd">
<svg version="1.1" id="Capa_1" xmlns="http://www.w3.org/2000/svg" xmlns:xlink="http://www.w3.org/1999/xlink" x="0px" y="0px"
	 viewBox="0 0 490 490" style="enable-background:new 0 0 490 490;" xml:space="preserve">
<g>
	<path fill="#65ca58" d="M486.382,341.346c1.998,0,3.618-1.62,3.618-3.619v-19.029c0-1.999-1.62-3.619-3.618-3.619H3.619
		c-1.998,0-3.619,1.62-3.619,3.619v19.029c0,1.999,1.621,3.619,3.619,3.619h31.898v34.22H3.619c-1.998,0-3.619,1.62-3.619,3.619
		v19.029c0,1.999,1.621,3.619,3.619,3.619h482.763c1.998,0,3.618-1.62,3.618-3.619v-19.029c0-1.999-1.62-3.619-3.618-3.619h-31.897
		v-34.22H486.382z M93.937,341.346h120.976v34.22H93.937V341.346z M396.064,375.565H273.331v-34.22h122.733V375.565z"/>
	<g>
		<path fill="#65ca58" d="M443.795,88.167h-66.133v30.057c0,2.761-2.238,5-5,5h-16.158c-2.762,0-5-2.239-5-5V88.167h-66.131
			c-8.285,0-15,6.716-15,15v158.422c0,8.284,6.715,15,15,15h158.422c8.283,0,15-6.716,15-15V103.167
			C458.795,94.883,452.078,88.167,443.795,88.167z M378.898,222.093c-1.086,1.2-2.582,1.81-4.082,1.81
			c-1.315,0-2.635-0.47-3.688-1.421c-0.98-0.888-3.924-3.55-3.924-3.55v24.599c0,3.038-2.463,5.5-5.498,5.5
			c-3.037,0-5.5-2.462-5.5-5.5v-24.599c0,0-2.941,2.662-3.924,3.55c-1.051,0.952-2.371,1.421-3.688,1.421
			c-1.5,0-2.994-0.61-4.08-1.81c-2.037-2.253-1.863-5.731,0.389-7.769c0,0,8.43-7.544,12.545-11.348
			c1.17-1.081,2.541-2.021,4.258-2.021c1.715,0.001,3.088,0.94,4.258,2.021c4.113,3.804,12.543,11.348,12.543,11.348
			C380.762,216.362,380.935,219.84,378.898,222.093z M429.646,222.093c-1.086,1.2-2.58,1.81-4.08,1.81
			c-1.316,0-2.637-0.469-3.688-1.421c-0.98-0.887-3.924-3.55-3.924-3.55v24.599c0,3.038-2.463,5.5-5.5,5.5
			c-3.035,0-5.498-2.462-5.498-5.5v-24.599c0,0-2.943,2.662-3.924,3.55c-1.053,0.952-2.373,1.421-3.688,1.421
			c-1.5,0-2.996-0.61-4.082-1.81c-2.037-2.253-1.863-5.731,0.391-7.769c0,0,8.43-7.544,12.543-11.348
			c1.17-1.081,2.543-2.021,4.258-2.021c1.717,0.001,3.088,0.94,4.258,2.021c4.115,3.804,12.545,11.348,12.545,11.348
			C431.51,216.362,431.684,219.84,429.646,222.093z"/>
		<g>
			<path fill="#65ca58" d="M204.629,88.167h-66.133v30.057c0,2.761-2.238,5-5,5h-16.158c-2.762,0-5-2.239-5-5V88.167H46.206
				c-8.284,0-15,6.716-15,15v158.422c0,8.284,6.716,15,15,15h158.423c8.283,0,15-6.716,15-15V103.167
				C219.629,94.883,212.912,88.167,204.629,88.167z M139.731,222.093c-1.086,1.2-2.581,1.81-4.081,1.81
				c-1.316,0-2.636-0.47-3.688-1.421c-0.981-0.888-3.924-3.55-3.924-3.55v24.599c0,3.038-2.463,5.5-5.499,5.5
				c-3.036,0-5.499-2.462-5.499-5.5v-24.599c0,0-2.942,2.662-3.924,3.55c-1.052,0.952-2.372,1.421-3.688,1.421
				c-1.5,0-2.995-0.61-4.081-1.81c-2.037-2.253-1.863-5.731,0.39-7.769c0,0,8.43-7.544,12.544-11.348
				c1.17-1.081,2.542-2.021,4.258-2.021c1.716,0.001,3.088,0.94,4.258,2.021c4.114,3.804,12.544,11.348,12.544,11.348
				C141.595,216.362,141.768,219.84,139.731,222.093z M190.479,222.093c-1.086,1.2-2.58,1.81-4.08,1.81
				c-1.315,0-2.636-0.469-3.688-1.421c-0.98-0.887-3.924-3.55-3.924-3.55v24.599c0,3.038-2.463,5.5-5.499,5.5
				c-3.036,0-5.499-2.462-5.499-5.5v-24.599c0,0-2.942,2.662-3.924,3.55c-1.052,0.952-2.372,1.421-3.688,1.421
				c-1.5,0-2.995-0.61-4.081-1.81c-2.037-2.253-1.863-5.731,0.39-7.769c0,0,8.43-7.544,12.544-11.348
				c1.17-1.081,2.542-2.021,4.258-2.021c1.716,0.001,3.088,0.94,4.258,2.021c4.114,3.804,12.544,11.348,12.544,11.348
				C192.344,216.362,192.518,219.84,190.479,222.093z"/>
		</g>
	</g>
</g>
<g>
</g>
<g>
</g>
<g>
</g>
<g>
</g>
<g>
</g>
<g>
</g>
<g>
</g>
<g>
</g>
<g>
</g>
<g>
</g>
<g>
</g>
<g>
</g>
<g>
</g>
<g>
</g>
<g>
</g>
</svg>
